# This file uses centimeters as units for non-parametric coordinates.

mtllib bar sign.mtl
g default
v -8.563538 0.047964 9.930712
v -5.364755 0.047964 9.930712
v -8.563538 5.158671 8.453253
v -5.364755 5.158671 8.453253
v -8.563538 5.085565 8.200370
v -5.364755 5.085565 8.200370
v -8.563538 -0.025142 9.677829
v -5.364755 -0.025142 9.677829
v -8.563538 -0.018537 6.893459
v -5.364755 -0.018537 6.893459
v -8.563538 5.076297 8.424760
v -5.364755 5.076297 8.424760
v -8.563538 5.152066 8.172662
v -5.364755 5.152066 8.172662
v -8.563538 0.057233 6.641362
v -5.364755 0.057233 6.641362
vt 0.001992 0.008181
vt 0.024059 0.001802
vt 0.152986 0.447775
vt 0.130919 0.454155
vt 0.288979 0.001802
vt 0.311046 0.008181
vt 0.182119 0.454155
vt 0.160052 0.447775
vt 0.451542 0.001802
vt 0.473541 0.008414
vt 0.339916 0.453002
vt 0.317917 0.446390
vt 0.479680 0.008414
vt 0.501679 0.001802
vt 0.635304 0.446390
vt 0.613306 0.453002
vt 0.120132 0.737280
vt 0.120132 0.458146
vt 0.142200 0.458146
vt 0.142200 0.737280
vt 0.091930 0.737280
vt 0.091930 0.458146
vt 0.113997 0.458146
vt 0.113997 0.737280
vt 0.063796 0.737280
vt 0.063796 0.458146
vt 0.085794 0.458146
vt 0.085794 0.737280
vt 0.035662 0.737280
vt 0.035662 0.458146
vt 0.057660 0.458146
vt 0.057660 0.737280
vt 0.641443 0.001802
vt 0.920577 0.001802
vt 0.920577 0.447775
vt 0.641443 0.447775
vt 0.718874 0.451767
vt 0.998008 0.451767
vt 0.998008 0.897740
vt 0.718874 0.897740
vt 0.433604 0.456994
vt 0.712739 0.456994
vt 0.712739 0.901582
vt 0.433604 0.901582
vt 0.148335 0.458146
vt 0.427469 0.458146
vt 0.427469 0.902735
vt 0.148335 0.902735
vn 0.000000 0.277719 0.960662
vn 0.000000 0.277719 0.960662
vn 0.000000 0.277719 0.960662
vn 0.000000 0.277719 0.960662
vn 0.000000 0.960662 -0.277721
vn 0.000000 0.960662 -0.277721
vn 0.000000 0.960662 -0.277721
vn 0.000000 0.960662 -0.277721
vn 0.000000 -0.277719 -0.960662
vn 0.000000 -0.277719 -0.960662
vn 0.000000 -0.277719 -0.960662
vn 0.000000 -0.277719 -0.960662
vn 0.000000 -0.960662 0.277719
vn 0.000000 -0.960662 0.277719
vn 0.000000 -0.960662 0.277719
vn 0.000000 -0.960662 0.277719
vn 1.000000 0.000000 0.000000
vn 1.000000 0.000000 0.000000
vn 1.000000 0.000000 0.000000
vn 1.000000 0.000000 0.000000
vn -1.000000 0.000000 0.000000
vn -1.000000 0.000000 0.000000
vn -1.000000 0.000000 0.000000
vn -1.000000 0.000000 0.000000
vn 0.000000 -0.287839 0.957679
vn 0.000000 -0.287839 0.957679
vn 0.000000 -0.287839 0.957679
vn 0.000000 -0.287839 0.957679
vn 0.000000 0.957680 0.287835
vn 0.000000 0.957680 0.287835
vn 0.000000 0.957680 0.287835
vn 0.000000 0.957680 0.287835
vn 0.000000 0.287839 -0.957679
vn 0.000000 0.287839 -0.957679
vn 0.000000 0.287839 -0.957679
vn 0.000000 0.287839 -0.957679
vn 0.000000 -0.957679 -0.287838
vn 0.000000 -0.957679 -0.287838
vn 0.000000 -0.957679 -0.287838
vn 0.000000 -0.957679 -0.287838
vn 1.000000 0.000000 0.000000
vn 1.000000 0.000000 0.000000
vn 1.000000 0.000000 0.000000
vn 1.000000 0.000000 0.000000
vn -1.000000 0.000000 0.000000
vn -1.000000 0.000000 0.000000
vn -1.000000 0.000000 0.000000
vn -1.000000 0.000000 0.000000
s off
g pCube6
usemtl texturedFacets2
f 1/33/1 2/34/2 4/35/3 3/36/4
f 3/17/5 4/18/6 6/19/7 5/20/8
f 5/37/9 6/38/10 8/39/11 7/40/12
f 7/21/13 8/22/14 2/23/15 1/24/16
f 2/1/17 8/2/18 6/3/19 4/4/20
f 7/5/21 1/6/22 3/7/23 5/8/24
f 9/41/25 10/42/26 12/43/27 11/44/28
f 11/25/29 12/26/30 14/27/31 13/28/32
f 13/45/33 14/46/34 16/47/35 15/48/36
f 15/29/37 16/30/38 10/31/39 9/32/40
f 10/9/41 16/10/42 14/11/43 12/12/44
f 15/13/45 9/14/46 11/15/47 13/16/48
